<svg version="1.2" xmlns="http://www.w3.org/2000/svg" viewBox="0 0 224 113" width="192" height="97">
	<title>face-svg</title>
	<style>
		.s0 { fill: #e6e6e6 } 
		.s1 { fill: #f0f0f0 } 
		.s2 { fill: #009898 } 
		.s3 { fill: #824e20 } 
		.s4 { fill: #079647 } 
		.s5 { fill: #be1e5f } 
		.s6 { fill: #0f0f0f } 
		.s7 { fill: #f16667 } 
		.s8 { fill: #7fb1df } 
		.s9 { fill: #cb79b1 } 
		.s10 { fill: #66c194 } 
	</style>
	<g id="g42">
		<g id="g10">
			<g id="g6">
				<circle id="path2" class="s0" cx="83.8" cy="85.8" r="26.3"/>
				<path id="path4" fill-rule="evenodd" class="s1" d="m111 85.8c0 15-12.1 27.2-27.2 27.2-15.1 0-27.3-12.3-27.3-27.3 0-15 12.3-27.2 27.3-27.2 15 0 27.2 12.3 27.2 27.3zm-52.5 0c0 13.9 11.3 25.2 25.3 25.2 14 0 25.3-11.4 25.3-25.3 0-13.9-11.4-25.2-25.3-25.2-14 0-25.3 11.4-25.3 25.3z"/>
			</g>
			<path id="path8" fill-rule="evenodd" class="s2" d="m102.7 85.8c0 10.4-8.5 18.9-18.9 18.9-10.4 0-18.9-8.5-18.9-18.9 0-10.4 8.5-18.9 18.9-18.9 10.4 0 18.8 8.4 18.9 18.9zm-2.9 0c0-8.8-7.2-16-16-16-8.8 0-16 7.1-16 16 0 8.8 7.1 16 16 16 8.8 0 16-7.2 16-16z"/>
		</g>
		<g id="g20">
			<g id="g16">
				<ellipse id="path12" class="s0" cx="27.3" cy="85.8" rx="26.3" ry="26.2"/>
				<path id="path14" fill-rule="evenodd" class="s1" d="m54.6 85.8c0 15.1-12.2 27.3-27.3 27.3-15.1 0-27.3-12.3-27.3-27.3 0-15 12.2-27.3 27.3-27.3 15 0 27.2 12.3 27.3 27.3zm-52.6 0c0 13.9 11.3 25.2 25.3 25.2 14 0 25.3-11.4 25.3-25.3 0-13.9-11.4-25.2-25.3-25.2-14 0-25.3 11.4-25.3 25.3z"/>
			</g>
			<path id="polygon18" class="s3" d="m29.3 85.8l12.3 12.3-2 2.1-12.3-12.4-12.4 12.4-2-2.1 12.3-12.3-12.3-12.4 2-2 12.4 12.4 12.3-12.4 2 2z"/>
		</g>
		<g id="g30">
			<g id="g26">
				<circle id="path22" class="s0" cx="140.3" cy="85.8" r="26.3"/>
				<path id="path24" fill-rule="evenodd" class="s1" d="m167.6 85.7c0 15.1-12.2 27.3-27.3 27.3-15.1 0-27.3-12.3-27.3-27.3 0-15 12.3-27.2 27.3-27.2 15 0 27.3 12.1 27.3 27.2zm-52.6 0.1c0 13.9 11.3 25.2 25.3 25.2 14 0 25.3-11.4 25.3-25.3 0-13.9-11.4-25.2-25.3-25.2-14 0-25.3 11.4-25.3 25.3z"/>
			</g>
			<path id="path28" fill-rule="evenodd" class="s4" d="m154.6 71.4v28.6h-28.6v-28.6zm-2.8 2.9h-23v23h23z"/>
		</g>
		<g id="g40">
			<g id="g36">
				<ellipse id="path32" class="s0" cx="196.7" cy="85.8" rx="26.3" ry="26.3"/>
				<path id="path34" fill-rule="evenodd" class="s1" d="m224 85.8c0 15-12.1 27.2-27.2 27.2-15.1 0-27.3-12.3-27.3-27.3 0-15 12.3-27.2 27.3-27.2 15 0 27.2 12.3 27.2 27.3zm-52.5 0c0 13.9 11.3 25.2 25.3 25.2 14 0 25.3-11.4 25.3-25.3 0-13.9-11.4-25.2-25.3-25.2-14 0-25.3 11.4-25.3 25.3z"/>
			</g>
			<path id="path38" fill-rule="evenodd" class="s5" d="m214.3 96.6h-35.2l1.6-2.8 16-27.6 16 27.6zm-4.8-2.8l-12.7-21.9-12.7 21.9z"/>
		</g>
	</g>
	<g id="g84">
		<g id="g52">
			<g id="g48">
				<path id="path46" fill-rule="evenodd" class="s6" d="m111 28c0 15-12.1 27.3-27.2 27.3-15.1 0-27.3-12.2-27.3-27.3 0-15.1 12.3-27.3 27.3-27.3 15 0 27.2 12.3 27.2 27.3zm-52.5 0c0 13.9 11.4 25.2 25.3 25.2 13.9 0 25.2-11.2 25.2-25.2 0-14-11.3-25.3-25.2-25.3-14 0-25.3 11.4-25.3 25.3z"/>
			</g>
			<path id="path50" fill-rule="evenodd" class="s7" d="m102.7 28c0 10.4-8.5 18.9-18.9 18.9-10.4 0-18.9-8.5-18.9-18.9 0-10.4 8.5-18.9 18.9-18.9 10.4 0 18.8 8.4 18.9 18.9zm-2.9 0c0-8.8-7.2-16-16-16-8.8 0-16 7.1-16 16 0 8.8 7.1 16 16 16 8.8 0 16-7.2 16-16z"/>
		</g>
		<g id="g62">
			<g id="g58">
				<path id="path56" fill-rule="evenodd" class="s6" d="m54.6 28c0 15.1-12.2 27.3-27.3 27.3-15.1 0-27.3-12.3-27.3-27.3 0-15.1 12.2-27.3 27.3-27.3 15 0 27.2 12.2 27.3 27.3zm-52.6 0c0 13.9 11.4 25.2 25.3 25.2 13.9 0 25.3-11.2 25.3-25.2 0-14-11.4-25.3-25.3-25.3-14 0-25.3 11.4-25.3 25.3z"/>
			</g>
			<path id="polygon60" class="s8" d="m29.3 27.9l12.3 12.4-2 2-12.3-12.3-12.4 12.3-2-2 12.3-12.4-12.3-12.3 2-2 12.4 12.3 12.3-12.3 2 2z"/>
		</g>
		<g id="g72">
			<g id="g68">
				<path id="path66" fill-rule="evenodd" class="s6" d="m167.6 28.7c0 15-12.2 27.2-27.3 27.2-15.1 0-27.3-12.1-27.3-27.2 0-15.1 12.3-27.3 27.3-27.3 15 0 27.3 12.3 27.3 27.3zm-52.6-0.1c0 14 11.3 25.3 25.3 25.3 14 0 25.3-11.2 25.3-25.2 0-14-11.4-25.3-25.3-25.3-14 0-25.3 11.2-25.3 25.2z"/>
			</g>
			<path id="path70" fill-rule="evenodd" class="s9" d="m154.6 14.2v28.6h-28.6v-28.6zm-2.8 2.9h-23v23h23z"/>
		</g>
		<g id="g82">
			<g id="g78">
				<path id="path76" fill-rule="evenodd" class="s6" d="m224 29.3c0 15-12.1 27.3-27.2 27.3-15.1 0-27.3-12.2-27.3-27.3 0-15.1 12.3-27.3 27.3-27.3 15 0 27.2 12.3 27.2 27.3zm-52.5 0c0 14 11.3 25.3 25.3 25.3 14 0 25.3-11.3 25.3-25.3 0-14-11.4-25.3-25.3-25.3-14 0-25.3 11.3-25.3 25.3z"/>
			</g>
			<path id="path80" fill-rule="evenodd" class="s10" d="m214.3 40.1h-35.2l1.6-2.8 16-27.6 16 27.6zm-4.8-2.8l-12.7-21.9-12.7 21.9z"/>
		</g>
	</g>
</svg>